<svg width="32" height="32" viewBox="0 0 32 32" fill="none" xmlns="http://www.w3.org/2000/svg">
<path d="M16.9592 7.34277C12.4385 7.34277 8.7606 11.0183 8.7583 15.5368C8.7583 17.0844 9.19126 18.5928 10.0111 19.8963L10.2069 20.2072L9.3778 23.2311L12.4799 22.4181L12.7793 22.5954C14.0367 23.3416 15.4807 23.7377 16.95 23.7377H16.9523C21.4708 23.7377 25.1463 20.0622 25.1486 15.5437C25.1486 13.3536 24.2988 11.2947 22.7512 9.74709C21.2036 8.19718 19.1448 7.34508 16.9569 7.34508L16.9592 7.34277ZM21.7794 19.0581C21.5744 19.6338 20.5887 20.1589 20.1166 20.2303C19.6929 20.2948 19.154 20.3201 18.5644 20.1335C18.2074 20.0207 17.7468 19.8687 17.1596 19.6154C14.6885 18.5491 13.0741 16.0596 12.9497 15.8961C12.8254 15.7325 11.9433 14.5603 11.9433 13.349C11.9433 12.1376 12.579 11.5411 12.8046 11.2947C13.0303 11.0483 13.2975 10.9861 13.461 10.9861C13.6245 10.9861 13.7903 10.9861 13.9331 10.9953C14.0851 11.0022 14.2878 10.9377 14.4881 11.4191C14.6931 11.9119 15.1859 13.1256 15.2481 13.2476C15.3103 13.3697 15.3517 13.5148 15.2688 13.6783C15.1859 13.8418 15.1468 13.9454 15.0224 14.0882C14.9004 14.231 14.7645 14.4083 14.6539 14.5189C14.5296 14.6409 14.4029 14.7745 14.5457 15.0209C14.6885 15.2673 15.1836 16.0734 15.916 16.7274C16.8579 17.5657 17.6501 17.826 17.8965 17.9503C18.143 18.0747 18.2857 18.0539 18.4308 17.8881C18.5736 17.7246 19.0457 17.1696 19.2115 16.9232C19.3751 16.6768 19.5409 16.7182 19.7666 16.7988C19.9923 16.8817 21.2036 17.4759 21.45 17.6003C21.6965 17.7246 21.86 17.7845 21.9222 17.8881C21.9843 17.9918 21.9843 18.4846 21.7794 19.0604V19.0581Z" fill="#E0FF5F"/>
<path d="M16.4548 0.308594C7.86929 0.308594 0.909668 7.26821 0.909668 15.8537C0.909668 24.4393 7.86929 31.3989 16.4548 31.3989C25.0403 31.3989 31.9999 24.4393 31.9999 15.8537C31.9999 7.26821 25.038 0.308594 16.4548 0.308594ZM16.9569 25.3996H16.9522C15.301 25.3996 13.6797 24.9851 12.2403 24.1997L7.01257 25.57L8.41048 20.462C7.54686 18.9674 7.09318 17.2701 7.09318 15.5336C7.09318 10.0986 11.5195 5.67685 16.9546 5.67685C19.5915 5.67685 22.0695 6.70398 23.9303 8.56709C25.7911 10.4302 26.8159 12.9082 26.8159 15.5405C26.8159 20.9756 22.3896 25.3996 16.9546 25.3996H16.9569Z" fill="#E0FF5F"/>
</svg>
