<svg width="32" height="33" viewBox="0 0 32 33" fill="none" xmlns="http://www.w3.org/2000/svg">
<path fill-rule="evenodd" clip-rule="evenodd" d="M8.05967 22.5919C8.24023 23.0562 8.45596 23.3892 8.80536 23.7386C9.15475 24.088 9.48538 24.3037 9.95202 24.4843C10.3038 24.6203 10.8314 24.7821 11.8022 24.8267C12.8527 24.8736 13.1669 24.8853 15.8284 24.8853C18.4899 24.8853 18.8041 24.8759 19.8546 24.8267C20.8254 24.7821 21.353 24.6203 21.7047 24.4843C22.169 24.3037 22.502 24.088 22.8514 23.7386C23.2008 23.3892 23.4165 23.0586 23.5971 22.5919C23.7331 22.2402 23.8949 21.7126 23.9394 20.7418C23.9863 19.6913 23.9981 19.3747 23.9981 16.7156C23.9981 14.0565 23.9887 13.7399 23.9394 12.6894C23.8949 11.7186 23.7331 11.191 23.5971 10.8392C23.4165 10.3749 23.2008 10.042 22.8514 9.69256C22.502 9.34317 22.1714 9.12744 21.7047 8.94688C21.353 8.81087 20.8254 8.64907 19.8546 8.60452C18.8041 8.55762 18.4875 8.5459 15.8284 8.5459C13.1692 8.5459 12.8527 8.55528 11.8022 8.60452C10.8314 8.64907 10.3038 8.81087 9.95202 8.94688C9.48773 9.12744 9.15475 9.34317 8.80536 9.69256C8.45596 10.042 8.24023 10.3726 8.05967 10.8392C7.92367 11.191 7.76187 11.7186 7.71731 12.6894C7.67042 13.7399 7.65869 14.0565 7.65869 16.7156C7.65869 19.3747 7.66807 19.6913 7.71731 20.7418C7.76187 21.7126 7.92367 22.2402 8.05967 22.5919ZM21.149 10.1991C21.8103 10.1991 22.3449 10.7337 22.3449 11.395C22.3449 12.0562 21.8103 12.5909 21.149 12.5909C20.4877 12.5909 19.9531 12.0562 19.9531 11.395C19.9531 10.7337 20.4877 10.1991 21.149 10.1991ZM15.8284 11.5966C18.654 11.5966 20.945 13.8876 20.945 16.7132C20.945 19.5389 18.654 21.8299 15.8284 21.8299C13.0028 21.8299 10.7118 19.5389 10.7118 16.7132C10.7118 13.8876 13.0028 11.5966 15.8284 11.5966Z" fill="#E0FF5F"/>
<path fill-rule="evenodd" clip-rule="evenodd" d="M15.8282 32.5411C24.57 32.5411 31.6564 25.4548 31.6564 16.713C31.6564 7.9711 24.57 0.884766 15.8282 0.884766C7.08634 0.884766 0 7.9711 0 16.713C0 25.4548 7.08634 32.5411 15.8282 32.5411ZM5.92326 12.6047C5.9725 11.5448 6.14134 10.8202 6.38755 10.1847C6.64315 9.53047 6.98316 8.97473 7.53656 8.41898C8.08996 7.86558 8.64571 7.52322 9.30228 7.26997C9.93541 7.02376 10.66 6.85492 11.7222 6.80568C12.7845 6.75644 13.1245 6.74471 15.8305 6.74471C18.5366 6.74471 18.8766 6.75644 19.9388 6.80568C20.9987 6.85492 21.7233 7.02141 22.3588 7.26997C23.013 7.52557 23.5688 7.86558 24.1245 8.41898C24.6779 8.97238 25.0203 9.52813 25.2735 10.1847C25.5197 10.8178 25.6886 11.5424 25.7378 12.6047C25.787 13.6669 25.7988 14.0069 25.7988 16.713C25.7988 19.419 25.787 19.759 25.7378 20.8212C25.6886 21.8811 25.5221 22.6057 25.2735 23.2412C25.0179 23.8954 24.6779 24.4512 24.1245 25.0069C23.5711 25.5603 23.0154 25.9027 22.3588 26.1559C21.7257 26.4021 21.0011 26.571 19.9388 26.6202C18.8766 26.6695 18.5366 26.6812 15.8305 26.6812C13.1245 26.6812 12.7845 26.6695 11.7222 26.6202C10.6623 26.571 9.93776 26.4045 9.30228 26.1559C8.64805 25.9003 8.09231 25.5603 7.53656 25.0069C6.98316 24.4535 6.6408 23.8978 6.38755 23.2412C6.14134 22.6081 5.9725 21.8835 5.92326 20.8212C5.87402 19.759 5.86229 19.419 5.86229 16.713C5.86229 14.0069 5.87402 13.6669 5.92326 12.6047Z" fill="#E0FF5F"/>
<path fill-rule="evenodd" clip-rule="evenodd" d="M15.8281 20.0351C17.6618 20.0351 19.1509 18.5485 19.1509 16.7124C19.1509 14.8763 17.6642 13.3896 15.8281 13.3896C13.992 13.3896 12.5054 14.8763 12.5054 16.7124C12.5054 18.5485 13.992 20.0351 15.8281 20.0351Z" fill="#E0FF5F"/>
</svg>
